<?xml version="1.0" encoding="UTF-8"?>
<svg id="Capa_1" xmlns="http://www.w3.org/2000/svg" version="1.1" viewBox="0 0 473 438">
  <!-- Generator: Adobe Illustrator 29.5.1, SVG Export Plug-In . SVG Version: 2.1.0 Build 141)  -->
  <defs>
    <style>
      .st0 {
        fill: #264065;
        opacity: .17;
      }
    </style>
  </defs>
  <path class="st0" d="M328.87,210.56c1.38-35.72-4.62-71.33-17.63-104.63-13.01-33.29-32.74-63.54-57.97-88.86L236.5.53l-16.77,16.54c-24.24,24.05-43.46,52.69-56.52,84.25-13.06,31.56-19.71,65.4-19.55,99.55v9.69c-36.2-21.68-77.58-33.19-119.78-33.31H.25v23.62c0,58.57,21.75,115.05,61.04,158.48,39.29,43.43,93.31,70.73,151.58,76.58v1.18h47.25v-1.18c58.27-5.86,112.3-33.15,151.58-76.58,39.29-43.43,61.04-99.92,61.04-158.48v-23.62h-23.62c-42.36.03-83.91,11.54-120.25,33.31ZM236.5,69.28c20.28,25.81,34.31,55.96,40.99,88.09,6.68,32.13,5.83,65.38-2.48,97.13-15.52,16.93-28.5,36.03-38.51,56.7-10.01-20.67-22.99-39.77-38.51-56.7-4.62-17.51-7-35.52-7.09-53.63-.17-47.77,15.91-94.17,45.6-131.59ZM49.15,226.15c41.04,5.53,79.12,24.38,108.4,53.66,29.28,29.28,48.13,67.37,53.66,108.4-41.04-5.53-79.12-24.38-108.4-53.66-29.28-29.28-48.13-67.37-53.66-108.4ZM261.78,388.22c5.53-41.04,24.38-79.12,53.66-108.4,29.28-29.28,67.37-48.13,108.4-53.66-5.53,41.04-24.38,79.12-53.66,108.4s-67.37,48.13-108.4,53.66Z"/>
</svg>