<?xml version="1.0" encoding="UTF-8"?>
<svg id="Capa_1" xmlns="http://www.w3.org/2000/svg" version="1.1" viewBox="0 0 148 148">
  <!-- Generator: Adobe Illustrator 29.5.1, SVG Export Plug-In . SVG Version: 2.1.0 Build 141)  -->
  <defs>
    <style>
      .st0 {
        fill: #fff;
      }

      .st1 {
        fill: #264065;
      }
    </style>
  </defs>
  <circle class="st0" cx="74.17" cy="73.83" r="72"/>
  <path class="st1" d="M57.33,98.81v-49.98c0-2.16,2.38-3.46,4.2-2.3l39.07,24.99c1.68,1.08,1.68,3.52,0,4.6l-39.07,24.99c-1.81,1.16-4.2-.14-4.2-2.3Z"/>
  <path class="st1" d="M58.4,98.81v-50.07c0-.06,0-.12.01-.18-.01.23,0,.04,0-.03.04-.13.07-.25.11-.37-.07.21-.02.04.01-.02.05-.08.09-.17.15-.25.03-.05.06-.09.09-.13-.13.18-.04.06,0,.02.1-.1.19-.19.3-.28-.17.15-.04.03.01,0,.06-.04.11-.07.18-.11.05-.03.1-.05.15-.08.2-.11-.15.04.05-.02.13-.04.26-.08.39-.11.24-.06-.14-.02,0,0,.06,0,.14,0,.2,0,.06,0,.11,0,.17,0,.01,0,.27.05.11,0-.17-.04.11.03.11.03.08.02.17.05.25.08.18.06.04.01,0,0,.08.04.16.08.24.13.03.01.06.04.08.05,0,0,.01,0,.02.01.1.06.2.13.3.19.53.34,1.05.67,1.58,1.01,2.05,1.31,4.1,2.62,6.15,3.93,2.88,1.85,5.77,3.69,8.66,5.54,3.06,1.95,6.12,3.92,9.18,5.87,2.64,1.69,5.27,3.37,7.9,5.06,1.57,1.01,3.14,2.01,4.71,3.01.15.1.3.2.46.29.04.02.07.04.11.06,0,0,.01,0,.01,0,.05.04.11.07.15.11-.16-.13,0,0,.03.04.07.08.14.15.21.22.04.04.08.15,0,0,.03.05.06.09.09.14.04.07.08.15.12.23.03.06.05.18,0-.02.04.13.08.26.12.4.01.06.02.11.03.16-.04-.27,0-.01,0,.05,0,.08-.04.49,0,.21-.02.13-.05.27-.09.4-.01.06-.04.11-.06.15.07-.22.02-.04-.01.01-.04.06-.06.13-.11.18-.02.03-.18.25-.04.06-.09.11-.2.21-.3.32-.03.03-.15.13,0,0-.06.04-.09.06-.15.11,0,0,0,0-.01,0-.03.02-.06.04-.09.06-1.2.77-2.39,1.53-3.59,2.29-2.41,1.54-4.82,3.09-7.24,4.63-3.03,1.93-6.05,3.87-9.08,5.81-2.97,1.91-5.96,3.81-8.93,5.72-2.33,1.49-4.65,2.98-6.98,4.46-1.04.67-2.07,1.34-3.12,2-.11.07-.22.13-.34.2.18-.09.05-.02,0,0-.07.02-.14.04-.21.06-.07.02-.14.03-.21.05.19-.06.11,0,.03,0-.14,0-.27,0-.41,0-.2,0,0,0,.04,0-.08-.01-.16-.03-.24-.05-.07-.01-.37-.13-.26-.08.11.05-.18-.1-.24-.13-.06-.04-.11-.08-.17-.11-.13-.06.16.16-.01-.01-.1-.1-.2-.19-.29-.3.15.16-.03-.05-.08-.12-.04-.07-.08-.15-.12-.22-.03-.06-.04-.17,0,.02-.04-.14-.08-.27-.12-.41-.01-.06,0-.19,0,.01.02-.07.01-.16.01-.25,0-.55-.48-1.08-1.05-1.05-.56.03-1.06.46-1.05,1.05.02,1.39.78,2.74,2.05,3.36,1.2.59,2.59.56,3.74-.15.26-.16.52-.33.77-.5,1.71-1.09,3.42-2.19,5.13-3.28,2.75-1.76,5.5-3.52,8.25-5.27,3.11-2,6.24-3.99,9.35-5.98,2.84-1.81,5.68-3.64,8.52-5.45,1.91-1.22,3.83-2.45,5.74-3.68.4-.25.8-.51,1.2-.77.38-.25.74-.53,1.02-.89.92-1.16,1.09-2.7.46-4.04-.39-.82-1.08-1.34-1.81-1.81-.56-.36-1.13-.72-1.69-1.08-2.14-1.37-4.29-2.74-6.43-4.11-2.95-1.89-5.91-3.78-8.87-5.67-3.11-1.98-6.21-3.97-9.32-5.96-2.59-1.66-5.19-3.32-7.78-4.98-1.42-.91-2.83-1.81-4.25-2.72-.96-.62-2.03-.94-3.19-.67-1.78.4-2.91,2.04-2.92,3.81v49.87c0,.55.49,1.08,1.05,1.05.58-.04,1.06-.48,1.06-1.07Z"/>
</svg>